<svg width="21" height="20" viewBox="0 0 21 20" fill="none" xmlns="http://www.w3.org/2000/svg">
<path fill-rule="evenodd" clip-rule="evenodd" d="M1.00001 19.9997H20V17.9997H1.00001V19.9997Z" fill="#EE6F57"/>
<path fill-rule="evenodd" clip-rule="evenodd" d="M4.45561 5.99975L10.4996 2.18275L16.5436 5.99975H4.45561ZM20.5336 6.15375L11.0336 0.15375C10.7076 -0.05125 10.2916 -0.05125 9.96561 0.15375L0.465609 6.15375C0.0896092 6.39175 -0.0843908 6.84975 0.0396092 7.27775C0.162609 7.70575 0.554609 7.99975 0.999609 7.99975H19.9996C20.4446 7.99975 20.8366 7.70575 20.9606 7.27775C21.0846 6.84975 20.9106 6.39175 20.5336 6.15375Z" fill="#EE6F57"/>
<path fill-rule="evenodd" clip-rule="evenodd" d="M4.00001 10.9997H5.00001V14.9997H4.00001V10.9997ZM6.00001 16.9997C6.55301 16.9997 7.00001 16.5527 7.00001 15.9997V9.99975C7.00001 9.44775 6.55301 8.99975 6.00001 8.99975H3.00001C2.44801 8.99975 2.00001 9.44775 2.00001 9.99975V15.9997C2.00001 16.5527 2.44801 16.9997 3.00001 16.9997H6.00001Z" fill="#EE6F57"/>
<path fill-rule="evenodd" clip-rule="evenodd" d="M10 10.9997H11V14.9997H10V10.9997ZM12 16.9997C12.553 16.9997 13 16.5527 13 15.9997V9.99975C13 9.44775 12.553 8.99975 12 8.99975H9.00002C8.44802 8.99975 8.00002 9.44775 8.00002 9.99975V15.9997C8.00002 16.5527 8.44802 16.9997 9.00002 16.9997H12Z" fill="#EE6F57"/>
<path fill-rule="evenodd" clip-rule="evenodd" d="M16 10.9997H17V14.9997H16V10.9997ZM18 16.9997C18.553 16.9997 19 16.5527 19 15.9997V9.99975C19 9.44775 18.553 8.99975 18 8.99975H15C14.448 8.99975 14 9.44775 14 9.99975V15.9997C14 16.5527 14.448 16.9997 15 16.9997H18Z" fill="#EE6F57"/>
</svg>
